<svg id="flat" height="512" viewBox="0 0 512 512" width="512" xmlns="http://www.w3.org/2000/svg"><circle cx="256" cy="256" fill="#045f9c" r="192"/><path d="m256 88c102.007 0 185.419 79.553 191.616 180 .245-3.97.384-7.968.384-12 0-106.039-85.961-192-192-192s-192 85.961-192 192c0 4.032.139 8.03.384 12 6.197-100.447 89.609-180 191.616-180z" fill="#2993ce"/><circle cx="256" cy="256" fill="#0c5177" r="104"/><path d="m378.774 40.429-58.762 51.416a17.416 17.416 0 0 0 -5.052 7.6l-5.612 16.836a17.384 17.384 0 0 1 -2.588 4.94l-14.914 19.879a17.409 17.409 0 0 0 -.558 20.1l22.052 33.079a17.412 17.412 0 0 0 8.373 6.644l50.392 18.9a17.409 17.409 0 0 0 15.77-1.816l5.516-3.677a17.41 17.41 0 0 0 6.859-19.991l-6.49-19.469a17.41 17.41 0 0 1 10.4-21.807l39.942-14.978a17.409 17.409 0 0 1 15.77 1.816l.171.114a17.411 17.411 0 0 0 25.229-6.7l8.886-17.773a17.41 17.41 0 0 0 -4.7-21.38l-18.013-14.412a17.41 17.41 0 0 1 -4.7-21.38 17.41 17.41 0 0 0 -11.345-24.676l-36.7-9.174a17.406 17.406 0 0 0 -12 1.318l-24.247 12.121a17.372 17.372 0 0 0 -3.679 2.47z" fill="#d1dee0"/><path d="m494.161 102.611-8.887 17.772a17.408 17.408 0 0 1 -25.228 6.7l-.171-.114a17.409 17.409 0 0 0 -15.77-1.815l-39.941 14.978a17.41 17.41 0 0 0 -10.4 21.806l.343 1.028a17.359 17.359 0 0 1 10.061-9.9l39.941-14.978a17.412 17.412 0 0 1 15.77 1.815l.171.114a17.409 17.409 0 0 0 25.228-6.7l8.887-17.773a17.4 17.4 0 0 0 .59-14.256c-.182.447-.377.888-.594 1.323z" fill="#b6c4c6"/><path d="m399.908 193.317a17.364 17.364 0 0 1 -6.517 8.082l-5.516 3.677a17.409 17.409 0 0 1 -15.77 1.815l-50.392-18.9a17.406 17.406 0 0 1 -8.373-6.644l-22.052-33.079a17.288 17.288 0 0 1 -1.667-3.189 17.4 17.4 0 0 0 1.667 16.125l22.052 33.079a17.412 17.412 0 0 0 8.373 6.644l50.392 18.9a17.409 17.409 0 0 0 15.77-1.816l5.516-3.677a17.41 17.41 0 0 0 6.859-19.991z" fill="#b6c4c6"/><path d="m112 196v16a20 20 0 0 0 20 20h64a20 20 0 0 0 20-20 20 20 0 0 0 -20-20 20 20 0 0 1 -20-20 20 20 0 0 1 20-20h45.448a23.546 23.546 0 0 0 21.06-13.016l1.9-3.805a23.546 23.546 0 0 0 -4.408-27.179 23.546 23.546 0 0 1 -4.411-27.179l8.266-16.648c-2.606-.105-5.223-.173-7.855-.173a192.025 192.025 0 0 0 -174.58 112h10.58a20 20 0 0 1 20 20z" fill="#4895aa"/><path d="m200 390.32v-1.263a26.113 26.113 0 0 0 -10.446-20.891 26.115 26.115 0 0 1 -4.723-37.2l3.845-4.806a20.253 20.253 0 0 0 -1.494-26.973 19.878 19.878 0 0 0 -24.592-2.8l-35.28 22.05a18.593 18.593 0 0 1 -26.485-24.082 28.3 28.3 0 0 0 -9.616-36.209l-26.578-17.725q-.618 7.709-.631 15.579a191.929 191.929 0 0 0 97.75 167.3l21.834-8.734a26.114 26.114 0 0 0 16.416-24.246z" fill="#4895aa"/><path d="m425.941 240a33.941 33.941 0 0 0 -33.941 33.941 33.941 33.941 0 0 1 -9.941 24l-4.118 4.118a33.941 33.941 0 0 1 -24 9.941h-45.941a20 20 0 0 0 -20 20 20 20 0 0 0 20 20h20a16 16 0 0 1 16 16 16 16 0 0 1 -16 16h-35.508a28.492 28.492 0 0 0 -28.492 28.492 28.5 28.5 0 0 0 .851 6.911l6.985 27.943c98.629-8.054 176.164-90.641 176.164-191.346 0-5.389-.233-10.723-.669-16z" fill="#4895aa"/><path d="m164.989 259.566 22.437-19.945a14.863 14.863 0 0 1 18.119-1.258l17.412 11.609a14.863 14.863 0 0 0 17.529-.761l26.106-20.884a14.861 14.861 0 0 1 12.2-2.969l31.871 6.374a14.882 14.882 0 0 1 2.605.775l.807.322a45.252 45.252 0 0 1 26.7 54.447 45.251 45.251 0 0 1 -19.527 25.942l-21.708 13.567a113.249 113.249 0 0 1 -60.021 17.215h-72.336a35.954 35.954 0 0 1 -35.593-30.869l-1.166-8.166a14.862 14.862 0 0 1 14.713-16.965 14.862 14.862 0 0 0 14.863-14.863v-2.463a14.858 14.858 0 0 1 4.989-11.108z" fill="#d1dee0"/><path d="m340.778 271.276a45.251 45.251 0 0 1 -19.527 25.942l-21.708 13.567a113.248 113.248 0 0 1 -60.023 17.215h-72.337a35.955 35.955 0 0 1 -35.593-30.869l-.04-.279a14.758 14.758 0 0 0 -1.126 8.113l1.166 8.166a35.955 35.955 0 0 0 35.593 30.869h72.337a113.248 113.248 0 0 0 60.023-17.215l21.708-13.567a45.251 45.251 0 0 0 19.527-25.942 45.072 45.072 0 0 0 1.027-20.437 45.406 45.406 0 0 1 -1.027 4.437z" fill="#b6c4c6"/><path d="m382.627 353.373-5.254 5.254a32 32 0 0 0 -9.373 22.628v18.745l-4.211 12.634a21.827 21.827 0 0 1 -15.412 14.272l-.188.047a21.825 21.825 0 0 0 -16.108 25.453 20.638 20.638 0 0 0 23.629 16.309l15.474-2.579a11.007 11.007 0 0 1 12.816 10.857 11.007 11.007 0 0 0 11.007 11.007h25.7a27.27 27.27 0 0 0 19.283-7.987l16.026-16.026a27.27 27.27 0 0 0 7.984-19.287v-20.7a24 24 0 0 0 24-24 24 24 0 0 0 -24-24h-16a32 32 0 0 0 -32-32h-10.745a32 32 0 0 0 -22.628 9.373z" fill="#d1dee0"/><path d="m439.987 464.013a27.269 27.269 0 0 1 -19.282 7.987h-25.7a11.007 11.007 0 0 1 -11.005-11.007 11.007 11.007 0 0 0 -12.816-10.857l-15.474 2.579a20.636 20.636 0 0 1 -22.52-12.627 21.737 21.737 0 0 0 -1.109 12.318 20.638 20.638 0 0 0 23.629 16.309l15.474-2.579a11.007 11.007 0 0 1 12.816 10.857 11.007 11.007 0 0 0 11.007 11.007h25.7a27.269 27.269 0 0 0 19.282-7.987l16.026-16.026a27.27 27.27 0 0 0 7.985-19.287v-16a27.27 27.27 0 0 1 -7.987 19.283z" fill="#b6c4c6"/><path d="m464 408v16a24 24 0 0 0 24-24 23.949 23.949 0 0 0 -1.371-8 24.007 24.007 0 0 1 -22.629 16z" fill="#b6c4c6"/><path d="m24 404v16a12 12 0 0 0 12 12h8a12 12 0 0 1 12 12v9.836a26.164 26.164 0 0 0 26.164 26.164h33.836a12 12 0 0 0 12-12 12 12 0 0 1 12-12h24a12 12 0 0 0 12-12v-24a12 12 0 0 0 -12-12h-8a12 12 0 0 1 -12-12 12 12 0 0 0 -12-12h-8a12 12 0 0 1 -12-12 20 20 0 0 0 -20-20h-16a28 28 0 0 0 -28 28 12 12 0 0 1 -12 12 12 12 0 0 0 -12 12z" fill="#d1dee0"/><path d="m164 440h-24a12 12 0 0 0 -12 12 12 12 0 0 1 -12 12h-33.836a26.164 26.164 0 0 1 -26.164-26.164v-9.836a12 12 0 0 0 -12-12h-8a12 12 0 0 1 -12-12v16a12 12 0 0 0 12 12h8a12 12 0 0 1 12 12v9.836a26.164 26.164 0 0 0 26.164 26.164h33.836a12 12 0 0 0 12-12 12 12 0 0 1 12-12h24a12 12 0 0 0 12-12v-16a12 12 0 0 1 -12 12z" fill="#b6c4c6"/><g fill="#d1dee0"><rect height="48" rx="18.808" width="64" x="24" y="144"/><rect height="40" rx="15.211" width="64" x="424" y="272"/><path d="m48 72.942v4.724a21.589 21.589 0 0 0 25.823 21.169 21.591 21.591 0 0 1 22.2 9.2l12.936 19.4a21.589 21.589 0 0 0 28.448 6.9l54.593-30.335 5.883-2.941a21.592 21.592 0 0 0 11.717-16.259l4.2-29.4a21.587 21.587 0 0 0 -11.717-22.363l-13.524-6.762a21.583 21.583 0 0 0 -9.659-2.275h-81.958a21.59 21.59 0 0 0 -15.265 6.323l-27.354 27.354a21.59 21.59 0 0 0 -6.323 15.265z"/></g><path d="m209.6 68.8a21.591 21.591 0 0 1 -11.717 16.257l-5.883 2.943-54.6 30.331a21.589 21.589 0 0 1 -28.448-6.9l-12.932-19.401a21.591 21.591 0 0 0 -22.2-9.2 21.6 21.6 0 0 1 -25.06-15.478 21.545 21.545 0 0 0 -.76 5.59v4.724a21.589 21.589 0 0 0 25.823 21.169 21.591 21.591 0 0 1 22.2 9.2l12.936 19.4a21.589 21.589 0 0 0 28.448 6.9l54.593-30.335 5.883-2.941a21.591 21.591 0 0 0 11.717-16.259l4.2-29.4a21.533 21.533 0 0 0 -.881-9.831z" fill="#b6c4c6"/></svg>