<svg id="Layer_1" enable-background="new 0 0 100 100" height="512" viewBox="0 0 100 100" width="512" xmlns="http://www.w3.org/2000/svg"><g><g><g><g><path d="m89.7 24.2.9 2.2c.1.2.3.4.5.4l2.3.5c.6.1.7.8.3 1.2l-1.8 1.5c-.2.1-.3.4-.2.6l.3 2.4c.1.6-.5 1-1 .7l-2-1.2c-.2-.1-.4-.1-.6 0l-2.2 1c-.5.2-1.1-.2-.9-.8l.5-2.3c.1-.2 0-.4-.2-.6l-1.6-1.8c-.4-.4-.1-1.1.4-1.1l2.4-.2c.2 0 .4-.1.5-.3l1.2-2.1c.2-.7 1-.6 1.2-.1z" fill="#fde0c2"/></g><g><path d="m93.4 27.3-2.3-.5c-.2 0-.4-.2-.5-.4l-.9-2.2c-.2-.4-.7-.5-1-.3l.4 1.8c.6 2.6-1.1 5.2-3.7 5.8l-.3 1.1c-.1.6.4 1 .9.8l2.2-1c.2-.1.4-.1.6 0l2 1.2c.5.3 1.1-.1 1-.7l-.3-2.4c0-.2.1-.4.2-.6l1.8-1.6c.7-.2.5-.9-.1-1z" fill="#ffcca1"/></g></g><g><g><path d="m30.3 51.9 1.7 1.7c.2.2.4.2.6.2l2.4-.4c.6-.1 1 .5.7 1l-1.1 2.1c-.1.2-.1.4 0 .6l1.1 2.1c.3.5-.2 1.1-.7 1l-2.4-.4c-.2 0-.4 0-.6.2l-1.7 1.7c-.4.4-1.1.2-1.2-.4l-.3-2.3c0-.2-.2-.4-.4-.5l-2.1-1.1c-.5-.3-.5-1 0-1.2l2.1-1c.2-.1.3-.3.4-.5l.4-2.4c0-.5.7-.8 1.1-.4z" fill="#fde0c2"/></g><g><path d="m34.9 53.5-2.4.4c-.2 0-.4 0-.6-.2l-1.7-1.7c-.3-.3-.8-.2-1.1.1l1 1.5c1.5 2.2.9 5.2-1.3 6.7l.2 1.1c.1.6.8.8 1.2.4l1.7-1.7c.2-.2.4-.2.6-.2l2.4.4c.6.1 1-.5.7-1l-1.1-2.1c-.1-.2-.1-.4 0-.6l1.1-2.1c.3-.5-.1-1.1-.7-1z" fill="#ffcca1"/></g></g><g><g><path d="m17.9 25.8v.1c-3.1 0-5.6 2.5-5.6 5.6h-.1c0-.1 0-.2 0-.4 0-.1 0-.2 0-.3s0-.2 0-.3 0-.2-.1-.3c0-.1 0-.2-.1-.3 0-.1-.1-.2-.1-.3s-.1-.2-.1-.4v-.1c-.1-.2-.2-.3-.3-.5 0-.1-.1-.1-.1-.2-.1-.2-.2-.3-.3-.4 0 0 0-.1-.1-.1-.1-.2-.3-.3-.4-.5-.2-.2-.3-.3-.5-.4s-.1-.1-.1-.1c-.2-.1-.4-.2-.6-.4-.8-.4-1.7-.7-2.7-.7v-.1c3.1 0 5.6-2.5 5.6-5.6h.1c0 1 .3 2 .8 2.8.1.2.2.3.3.5.1.1.1.2.2.3 0 0 0 .1.1.1l.3.3c.1.1.3.3.4.4h.1c.2.1.3.2.5.3h.1c.1.1.2.1.3.2.2.1.4.2.6.3.1 0 .2.1.3.1h.2c.2 0 .3.1.5.1h.2c.2.2.4.3.6.3z" fill="#fde0c2"/></g><g><path d="m17.9 25.8v.1c-3.1 0-5.6 2.5-5.6 5.6h-.1c0-.1 0-.2 0-.4 0-.1 0-.2 0-.3s0-.2 0-.3 0-.2-.1-.3c0-.1 0-.2-.1-.3 0-.1-.1-.2-.1-.3s-.1-.2-.1-.4v-.1c-.1-.2-.2-.3-.3-.5 0-.1-.1-.1-.1-.2-.1-.2-.2-.3-.3-.4 0 0 0-.1-.1-.1-.1-.2-.3-.3-.4-.5-.2-.2-.3-.3-.5-.4s-.1-.1-.1-.1c-.2-.1-.4-.2-.6-.4h.3c2 0 3.5-1.6 3.5-3.5.1.2.2.3.3.5.1.1.1.2.2.3 0 0 0 .1.1.1.1.1.2.2.3.3s.3.3.4.4h.1c.2.1.3.2.5.3h.1c.1.1.2.1.3.2.2.1.4.2.6.3.1 0 .2.1.3.1h.2c.2 0 .3.1.5.1h.2c.2.1.4.2.6.2z" fill="#ffcca1"/></g></g><g><g><path d="m92.1 65.3v.1c-3.1-.2-5.7 2.1-6 5.1h-.1c0-.1 0-.2 0-.4 0-.1 0-.2 0-.3s0-.2 0-.3 0-.2 0-.3 0-.2-.1-.3c0-.1 0-.2-.1-.3 0-.1-.1-.2-.1-.4v-.1c-.1-.2-.1-.3-.2-.5 0-.1-.1-.1-.1-.2-.1-.2-.2-.3-.3-.5 0 0 0-.1-.1-.1-.1-.2-.3-.4-.4-.5-.1-.2-.3-.3-.5-.5s-.1-.1-.1-.1c-.2-.1-.3-.3-.5-.4-.8-.5-1.6-.8-2.6-.9v-.1c3.1.2 5.7-2.1 6-5.1h.1c-.1 1 .1 2 .6 2.9.1.2.2.3.3.5.1.1.1.2.2.3 0 0 0 .1.1.1.1.1.2.2.3.3s.3.3.4.4h.1c.2.1.3.3.5.4h.1c.1.1.2.1.3.2.2.1.4.2.6.3.1 0 .2.1.3.1s.1 0 .2.1c.2.1.3.1.5.1h.2c-.1.3.1.3.4.4z" fill="#fde0c2"/></g><g><path d="m92.1 65.3v.1c-3.1-.2-5.7 2.1-6 5.1h-.1c0-.1 0-.2 0-.4 0-.1 0-.2 0-.3s0-.2 0-.3 0-.2 0-.3 0-.2-.1-.3c0-.1 0-.2-.1-.3 0-.1-.1-.2-.1-.4v-.1c-.1-.2-.1-.3-.2-.5 0-.1-.1-.1-.1-.2-.1-.2-.2-.3-.3-.5 0 0 0-.1-.1-.1-.1-.2-.3-.4-.4-.5-.1-.2-.3-.3-.5-.5s-.1-.1-.1-.1c-.2-.1-.3-.3-.5-.4h.3c1.9.1 3.6-1.3 3.8-3.3.1.2.2.3.3.5.1.1.1.2.2.3 0 0 0 .1.1.1.1.1.2.2.3.3s.3.3.4.4h.1c.2.1.3.3.5.4h.1c.1.1.2.1.3.2l.6.3c.1.1.2.1.3.1s.1 0 .2.1c.2.1.3.1.5.1h.2c-.1.4.1.4.4.5z" fill="#ffcca1"/></g></g><g><g><circle cx="26.3" cy="8.1" fill="#fde0c2" r="2.2"/></g><g><path d="m26.7 6v.2c.1 1.4-1 2.6-2.4 2.7.4 1 1.4 1.6 2.5 1.3.8-.2 1.5-1 1.6-1.8.2-1.2-.6-2.1-1.7-2.4z" fill="#ffcca1"/></g></g><g><g><circle cx="75.2" cy="50.4" fill="#fde0c2" r="2.2"/></g><g><path d="m75.7 48.3v.2c.1 1.4-1 2.6-2.4 2.7.4 1 1.4 1.6 2.5 1.3.8-.2 1.5-1 1.6-1.8.1-1.2-.7-2.2-1.7-2.4z" fill="#ffcca1"/></g></g><g><g><circle cx="92.4" cy="92.9" fill="#fde0c2" r="2.2"/></g><g><path d="m92.9 90.8v.2c.1 1.4-1 2.6-2.4 2.7.4 1 1.4 1.6 2.5 1.3.8-.2 1.5-1 1.6-1.8.1-1.2-.7-2.2-1.7-2.4z" fill="#ffcca1"/></g></g><g><g><circle cx="66.3" cy="6" fill="#fde0c2" r="2.2"/></g><g><path d="m66.8 3.9v.2c.1 1.4-1 2.6-2.4 2.7.4 1 1.4 1.6 2.5 1.3.8-.2 1.5-1 1.6-1.8.1-1.2-.6-2.1-1.7-2.4z" fill="#ffcca1"/></g></g><g><g><path d="m8.6 6.5h-.1c-.3 0-.5-.3-.5-.6l.2-1.6c0-.3.3-.5.6-.5h.1c.3 0 .5.3.5.6l-.2 1.6c0 .3-.3.5-.6.5z" fill="#ed7a88"/></g><g><path d="m8 11.4h-.1c-.3 0-.5-.3-.5-.6l.2-1.6c0-.3.3-.5.6-.5h.1c.3 0 .5.3.5.6l-.2 1.6c0 .3-.3.6-.6.5z" fill="#ed7a88"/></g><g><path d="m9.5 7.8v-.1c0-.3.3-.5.6-.5l1.6.2c.3 0 .5.3.5.6v.1c0 .3-.3.5-.6.5l-1.6-.2c-.3 0-.6-.3-.5-.6z" fill="#ed7a88"/></g><g><path d="m4.5 7.2v-.1c0-.3.3-.5.6-.5l1.6.2c.3 0 .5.3.5.6v.1c.1.3-.2.6-.5.5l-1.6-.1c-.4-.1-.6-.4-.6-.7z" fill="#ed7a88"/></g><g><circle cx="8.4" cy="7.6" fill="#ed7a88" r=".6"/></g></g><g><g><path d="m90.2 10.1h-.1c-.3 0-.5-.3-.5-.6l.2-1.6c0-.3.3-.5.6-.5h.1c.3 0 .5.3.5.6l-.2 1.6c0 .3-.3.5-.6.5z" fill="#ed7a88"/></g><g><path d="m89.6 15h-.1c-.3 0-.5-.3-.5-.6l.2-1.6c0-.3.3-.5.6-.5h.1c.3 0 .5.3.5.6l-.2 1.6c0 .3-.3.5-.6.5z" fill="#ed7a88"/></g><g><path d="m91 11.4v-.1c0-.3.3-.5.6-.5l1.6.2c.3 0 .5.3.5.6v.1c0 .3-.3.5-.6.5l-1.5-.2c-.4 0-.6-.3-.6-.6z" fill="#ed7a88"/></g><g><path d="m86.1 10.8v-.1c0-.3.3-.5.6-.5l1.6.2c.3 0 .5.3.5.6v.1c0 .3-.3.5-.6.5l-1.6-.2c-.3 0-.5-.3-.5-.6z" fill="#ed7a88"/></g><g><circle cx="90" cy="11.2" fill="#ed7a88" r=".6"/></g></g><g><g><path d="m90.4 45.4h-.1c-.3.1-.6-.1-.7-.4l-.3-1.6c-.1-.3.1-.6.4-.7h.1c.3-.1.6.1.7.4l.3 1.6c.1.3-.1.7-.4.7z" fill="#8087a0"/></g><g><path d="m91.4 50.3h-.1c-.3.1-.6-.1-.7-.4l-.3-1.6c-.1-.3.1-.6.4-.7h.1c.3-.1.6.1.7.4l.3 1.6c.1.3-.1.6-.4.7z" fill="#8087a0"/></g><g><path d="m91.6 46.4v-.1c-.1-.3.1-.6.4-.7l1.6-.3c.3-.1.6.1.7.4v.1c.1.3-.1.6-.4.7l-1.6.3c-.3.1-.6-.1-.7-.4z" fill="#8087a0"/></g><g><path d="m86.8 47.4v-.1c-.1-.3.1-.6.4-.7l1.6-.3c.3-.1.6.1.7.4v.1c.1.3-.1.6-.4.7l-1.6.3c-.4.1-.7-.1-.7-.4z" fill="#8087a0"/></g><g><circle cx="90.5" cy="46.5" fill="#8087a0" r=".6"/></g></g><g><g><path d="m36 38.2h-.1c-.3.1-.6-.1-.7-.4l-.3-1.6c-.1-.3.1-.6.4-.7h.1c.3-.1.6.1.7.4l.3 1.6c.1.3-.1.6-.4.7z" fill="#8087a0"/></g><g><path d="m37 43h-.1c-.3.1-.6-.1-.7-.4l-.3-1.6c-.1-.3.1-.6.4-.7h.1c.3-.1.6.1.7.4l.3 1.6c.1.3-.1.7-.4.7z" fill="#8087a0"/></g><g><path d="m37.2 39.1v-.1c-.1-.3.1-.6.4-.7l1.6-.3c.3-.1.6.1.7.4v.1c.1.3-.1.6-.4.7l-1.6.3c-.3.1-.6-.1-.7-.4z" fill="#8087a0"/></g><g><path d="m32.4 40.1v-.1c-.1-.3.1-.6.4-.7l1.6-.3c.3-.1.6.1.7.4v.1c.1.3-.1.6-.4.7l-1.6.3c-.3.1-.6-.1-.7-.4z" fill="#8087a0"/></g><g><circle cx="36.2" cy="39.3" fill="#8087a0" r=".6"/></g></g><g><g><path d="m10.7 90.3h-.1c-.3.1-.6-.1-.7-.4l-.3-1.6c-.1-.3.1-.6.4-.7h.1c.3-.1.6.1.7.4l.3 1.6c.1.3-.1.6-.4.7z" fill="#8087a0"/></g><g><path d="m11.7 95.1h-.1c-.3.1-.6-.1-.7-.4l-.3-1.6c-.1-.3.1-.6.4-.7h.1c.3-.1.6.1.7.4l.3 1.6c.1.4-.1.7-.4.7z" fill="#8087a0"/></g><g><path d="m11.9 91.2v-.1c-.1-.3.1-.6.4-.7l1.6-.3c.3-.1.6.1.7.4v.1c.1.3-.1.6-.4.7l-1.6.3c-.3.1-.6-.1-.7-.4z" fill="#8087a0"/></g><g><path d="m7.1 92.2v-.1c-.1-.3.1-.6.4-.7l1.6-.3c.3-.1.6.1.7.4v.1c.1.3-.1.6-.4.7l-1.6.3c-.3.2-.6 0-.7-.4z" fill="#8087a0"/></g><g><circle cx="10.8" cy="91.4" fill="#8087a0" r=".6"/></g></g><g><g><path d="m46.6 8.3h-.1c-.3.1-.6-.1-.7-.4l-.3-1.6c-.1-.3.1-.6.4-.7h.1c.3-.1.6.1.7.4l.3 1.6c.1.3-.1.6-.4.7z" fill="#8087a0"/></g><g><path d="m47.6 13.1h-.1c-.3.1-.6-.1-.7-.4l-.3-1.6c-.1-.3.1-.6.4-.7h.1c.3-.1.6.1.7.4l.3 1.6c.1.4-.1.7-.4.7z" fill="#8087a0"/></g><g><path d="m47.8 9.2v-.1c-.1-.3.1-.6.4-.7l1.6-.3c.3-.1.6.1.7.4v.1c.1.3-.1.6-.4.7l-1.6.3c-.3.1-.6-.1-.7-.4z" fill="#8087a0"/></g><g><path d="m43 10.2v-.1c-.1-.3.1-.6.4-.7l1.6-.3c.3-.1.6.1.7.4v.1c.1.3-.1.6-.4.7l-1.6.3c-.3.1-.6-.1-.7-.4z" fill="#8087a0"/></g><g><circle cx="46.8" cy="9.4" fill="#8087a0" r=".6"/></g></g><g><g><path d="m89.1 81.6c0 1.4-.6 2.7-1.5 3.7-.9.9-2.2 1.5-3.7 1.5h-59.1c-2.8 0-5.1-2.3-5.1-5.1 0-.2 0-.5.1-.7.2-1.1.7-2.1 1.5-2.9.5-.6 1.2-1 2-1.2.5-.2 1.1-.3 1.7-.3h59.1c.6 0 1.2.1 1.7.3 1.8.5 3.3 2.5 3.3 4.7z" fill="#ffcca1"/></g><g><path d="m79.5 86.8-3.9 7c-.7 1.4-2 2.2-3.5 2.2h-35.5c-1.5 0-2.9-.9-3.5-2.2l-3.4-6.1-.5-.9z" fill="#ffcca1"/></g><g><path d="m62.2 68.6c0 4.4-3.5 7.9-7.9 7.9s-7.9-3.5-7.9-7.9c0-.8.1-1.5.3-2.2.9-3.3 4-5.7 7.6-5.7s6.6 2.4 7.6 5.7c.2.7.3 1.4.3 2.2z" fill="#ffcca1"/></g><g><path d="m54.3 76.5h-15.4c-.4-.7-.6-1.5-.6-2.3 0-3.3 3.4-6.2 8.5-7.7-.2.7-.3 1.4-.3 2.2-.1 4.2 3.5 7.8 7.8 7.8z" fill="#ffcca1"/></g><g><path d="m70.4 74.1c0 .8-.2 1.6-.6 2.3h-15.5c4.4 0 7.9-3.5 7.9-7.9 0-.8-.1-1.5-.3-2.2 5.1 1.6 8.5 4.5 8.5 7.8z" fill="#ffcca1"/></g><g><path d="m73 17.7-2.8 9.1c-.5 1.7-2.1 2.8-3.8 2.8h-24c-1.8 0-3.3-1.1-3.8-2.8l-.9-3-1.9-6.1z" fill="#ffcca1"/></g><g><g><g><path d="m89.1 81.6c0 1.4-.6 2.7-1.5 3.7-.9.9-2.2 1.5-3.7 1.5h-59.1c-2.8 0-5.1-2.3-5.1-5.1 0-.2 0-.5.1-.7.2-1.1.7-2.1 1.5-2.9.5-.6 1.2-1 2-1.2.5-.2 1.1-.3 1.7-.3h59.1c.6 0 1.2.1 1.7.3 1.8.5 3.3 2.5 3.3 4.7z" fill="#747a94"/></g><g><path d="m21.1 80.8c.5-.6 1.2-1 2-1.2.5-.2 1.1-.3 1.7-.3h59.1c.6 0 1.2.1 1.7.3 1.6.5 2.8 1.8 3.3 3.4.1-.4.2-.9.2-1.4 0-2.3-1.5-4.2-3.5-4.9-.5-.2-1.1-.3-1.7-.3h-59.1c-.6 0-1.2.1-1.7.3-.7.3-1.4.7-2 1.2-.8.8-1.3 1.8-1.5 2.9 0 .2-.1.5-.1.7 0 .5.1 1 .2 1.4.4-.7.8-1.5 1.4-2.1z" fill="#8087a0"/></g><g><path d="m87.6 81.4c-.9.9-2.2 1.5-3.7 1.5h-59.1c-2.1 0-4-1.3-4.8-3.2-.2.4-.3.8-.3 1.2 0 .2-.1.5-.1.7 0 2.9 2.3 5.1 5.1 5.1h59.1c1.4 0 2.7-.6 3.7-1.5.9-.9 1.5-2.2 1.5-3.7 0-.7-.1-1.3-.4-1.9-.2.7-.6 1.3-1 1.8z" fill="#585c77"/></g><g><path d="m79.5 86.8-3.9 7c-.7 1.4-2 2.2-3.5 2.2h-35.5c-1.5 0-2.9-.9-3.5-2.2l-3.4-6.1-.5-.9z" fill="#747a94"/></g><g><path d="m31 90.1h46.6l1.9-3.3h-50.3l.5.8z" fill="#8087a0"/></g><g><path d="m75.6 90.4c-.7 1.4-2 2.2-3.5 2.2h-35.5c-1.5 0-2.9-.9-3.5-2.2l-2-3.6h-1.9l.5.9 3.4 6.1c.6 1.4 2 2.2 3.5 2.2h35.4c1.5 0 2.9-.9 3.5-2.2l3.9-7h-1.9z" fill="#585c77"/></g><g><path d="m62.2 68.6c0 4.4-3.5 7.9-7.9 7.9s-7.9-3.5-7.9-7.9c0-.8.1-1.5.3-2.2.9-3.3 4-5.7 7.6-5.7s6.6 2.4 7.6 5.7c.2.7.3 1.4.3 2.2z" fill="#ffcca1"/></g><g><path d="m61.9 66.4c-.6-2.2-2.1-3.9-4.1-4.9.4.6.7 1.3.9 2s.3 1.4.3 2.2c0 4.4-3.5 7.9-7.9 7.9-1.2 0-2.4-.3-3.5-.8 1.4 2.2 3.9 3.7 6.7 3.7 4.4 0 7.9-3.5 7.9-7.9 0-.8-.1-1.5-.3-2.2z" fill="#ffbc8a"/></g><g><path d="m54.3 76.5h-15.4c-.4-.7-.6-1.5-.6-2.3 0-3.3 3.4-6.2 8.5-7.7-.2.7-.3 1.4-.3 2.2-.1 4.2 3.5 7.8 7.8 7.8z" fill="#ffcca1"/></g><g><g><path d="m46.6 66.4c0 .1.1.3.1.4 0-.2.1-.3.1-.5-.1.1-.2.1-.2.1z" fill="#ffbc8a"/></g><g><path d="m47.8 73h-8.9c-.1-.2-.2-.4-.3-.6-.2.6-.3 1.1-.3 1.7 0 .8.2 1.6.6 2.3h15.5c-2.8.1-5.2-1.3-6.6-3.4z" fill="#ffbc8a"/></g></g><g><path d="m70.4 74.1c0 .8-.2 1.6-.6 2.3h-15.5c4.4 0 7.9-3.5 7.9-7.9 0-.8-.1-1.5-.3-2.2 5.1 1.6 8.5 4.5 8.5 7.8z" fill="#ffcca1"/></g><g><g><path d="m62.1 66.4c-.1 0-.1 0-.2-.1 0 .2.1.3.1.5 0-.1.1-.2.1-.4z" fill="#ffbc8a"/></g><g><path d="m69.8 73h-8.9c-1.4 2.1-3.8 3.5-6.5 3.5h15.5c.4-.7.6-1.5.6-2.3 0-.6-.1-1.2-.3-1.8-.2.2-.3.4-.4.6z" fill="#ffbc8a"/></g></g></g><g><path d="m29.7 87.7c-.6-.3-1.2-.6-1.8-.9" fill="#ffcca1"/></g><g><path d="m73 17.7-2.8 9.1c-.5 1.7-2.1 2.8-3.8 2.8h-24c-1.8 0-3.3-1.1-3.8-2.8l-.9-3-1.9-6.1z" fill="#b9baea"/></g><g><path d="m72 20.8 1-3.1h-37.3l.9 3.1z" fill="#cbcdf7"/></g><g><path d="m70.1 23.1c-.5 1.7-2.1 2.8-3.8 2.8h-24c-1.8 0-3.3-1.1-3.8-2.8l-.9-3-.7-2.3h-1.2l1.9 6.1.9 3c.5 1.7 2.1 2.8 3.8 2.8h24c1.8 0 3.3-1.1 3.8-2.8l2.8-9.1h-1.2z" fill="#a9abdf"/></g></g><g><g><path d="m24.4 76.5c-.5 0-.9.1-1.3.3-.8.3-1.4.7-2 1.2-.8.8-1.3 1.8-1.5 2.9-6.5-6.1-10.5-14.6-10.5-23.8 0-16.1 12.1-29.5 28.5-33.3l.9 3c.2.8.7 1.5 1.3 1.9-13.2 3.3-24.6 14.7-24.6 27.7.1 7.7 3.8 15 9.2 20.1z" fill="#747a94"/></g><g><path d="m11.8 57.1c0-15.2 10.9-28.1 26-32.6l-.2-.7c-16.4 3.8-28.5 17.3-28.5 33.3 0 9.2 4 17.6 10.6 23.8.1-.7.4-1.4.7-2-5.4-5.9-8.6-13.5-8.6-21.8z" fill="#8087a0"/></g><g fill="#384169"><path d="m94.1 28.8c.3-.3.5-.8.4-1.2s-.5-.8-.9-.9l-2.3-.5c-.1 0-.1-.1-.1-.1l-1.1-2.1c-.2-.4-.6-.7-1-.7-.5 0-.9.2-1.1.6l-1.2 2.1c0 .1-.1.1-.1.1l-2.4.2c-.5 0-.8.3-1 .7s-.1.9.2 1.2l1.6 1.8v.2l-.5 2.3c-.1.4 0 .9.4 1.2.3.3.8.3 1.2.2l2.2-1h.2l2 1.2c.2.1.4.2.6.2s.4-.1.6-.2c.4-.3.6-.7.5-1.1l-.3-2.4c0-.1 0-.1.1-.2zm-2.5.8c-.3.3-.4.6-.4 1l.3 2.4c0 .1 0 .1-.1.2 0 0-.1.1-.2 0l-2-1.2c-.2-.1-.4-.2-.6-.2s-.3 0-.5.1l-2.2 1c-.1 0-.2 0-.2 0s-.1-.1-.1-.2l.5-2.3c.1-.4 0-.8-.3-1.1l-1.6-1.8c-.1-.1 0-.2 0-.2s.1-.1.2-.1l2.4-.2c.4 0 .7-.3.9-.6l1.2-2.1c0-.1.1-.1.2-.1 0 0 .1 0 .2.1l.9 2.2c.2.4.5.6.9.7l2.3.5c.1 0 .1.1.1.1s0 .1-.1.2z"/><path d="m35 57c0-.1 0-.1 0-.2l1.1-2.1c.2-.4.2-.9-.1-1.3s-.7-.5-1.2-.5l-2.4.4c-.1 0-.1 0-.2 0l-1.7-1.7c-.3-.3-.8-.4-1.2-.3s-.7.5-.8 1l-.3 2.4c0 .1 0 .1-.1.1l-2.1 1.1c-.4.2-.7.6-.7 1.1s.3.9.7 1.1l2.1 1.1s.1.1.1.1l.3 2.4c.1.4.4.8.8 1 .1 0 .3.1.4.1.3 0 .6-.1.8-.4l1.7-1.7s.1-.1.2-.1l2.4.4c.4.1.9-.1 1.2-.5s.3-.8.1-1.3zm.2 2.7s-.1.1-.2.1l-2.4-.4c-.4-.1-.8.1-1 .3l-1.7 1.7c-.1.1-.2.1-.2.1s-.1-.1-.1-.2l-.3-2.3c-.1-.4-.3-.7-.6-.9l-2.2-1.1c-.1-.1-.1-.1-.1-.2 0 0 0-.1.1-.2l2.1-1c.4-.2.6-.5.7-.9l.3-2.4c0-.1.1-.1.1-.2h.1s.1 0 .1.1l1.7 1.7c.3.3.7.4 1 .3l2.4-.4c.1 0 .2 0 .2.1 0 0 .1.1 0 .2l-1.1 2.1c-.2.3-.2.8 0 1.1l1.1 2.1z"/><path d="m17.9 25.3c-2.8 0-5.1-2.3-5.1-5.1 0-.3-.2-.5-.5-.5h-.1c-.3 0-.5.2-.5.5 0 2.8-2.3 5.1-5.1 5.1-.3 0-.5.2-.5.5v.1c0 .3.2.5.5.5 2.8 0 5.1 2.3 5.1 5.1 0 .3.2.5.5.5h.1c.3 0 .5-.2.5-.5 0-2.8 2.3-5.1 5.1-5.1.3 0 .5-.2.5-.5v-.1c0-.3-.2-.5-.5-.5zm-5.6 3.9c-.6-1.5-1.8-2.8-3.4-3.4 1.6-.6 2.8-1.8 3.4-3.4.6 1.6 1.8 2.8 3.4 3.4-1.6.6-2.8 1.9-3.4 3.4z"/><path d="m92.1 64.7c-2.8-.2-4.9-2.6-4.7-5.4 0-.1 0-.3-.1-.4s-.2-.2-.3-.2h-.1c-.3 0-.5.2-.5.5-.2 2.8-2.7 4.9-5.4 4.7-.3 0-.5.2-.5.5v.1c0 .3.2.5.5.5 2.8.2 4.9 2.7 4.7 5.4 0 .3.2.5.5.5h.2c.3 0 .5-.2.5-.5.2-2.8 2.7-4.9 5.4-4.7.3 0 .5-.2.5-.5v-.1c-.2-.1-.4-.3-.7-.4zm-5.9 3.6c-.5-1.6-1.6-2.9-3.1-3.6 1.6-.5 2.9-1.6 3.6-3.1.5 1.6 1.6 2.9 3.1 3.6-1.6.4-2.9 1.6-3.6 3.1z"/><path d="m26.1 5.1c-1.7.1-3 1.5-2.9 3.2s1.5 2.9 3.2 2.9c1.7-.1 3-1.5 2.9-3.2s-1.5-3-3.2-2.9zm.3 4.7c-.9.1-1.7-.6-1.7-1.5s.6-1.6 1.5-1.7 1.7.6 1.7 1.5c.1.8-.6 1.6-1.5 1.7z"/><path d="m75 47.4c-1.7.1-3 1.5-2.9 3.2s1.5 2.9 3.2 2.9c1.7-.1 3-1.5 2.9-3.2s-1.5-3-3.2-2.9zm.3 4.6c-.9.1-1.7-.6-1.7-1.5s.6-1.6 1.5-1.7 1.6.6 1.7 1.5-.6 1.7-1.5 1.7z"/><path d="m92.3 89.9c-1.7.1-3 1.5-2.9 3.2s1.5 2.9 3.2 2.9c1.7-.1 3-1.5 2.9-3.2s-1.6-3-3.2-2.9zm.2 4.6c-.9.1-1.7-.6-1.7-1.5s.6-1.6 1.5-1.7 1.7.6 1.7 1.5c.1.9-.6 1.6-1.5 1.7z"/><path d="m66.2 3c-1.7.1-3 1.5-2.9 3.2s1.5 3 3.2 2.9 2.9-1.5 2.9-3.2c-.1-1.7-1.5-3-3.2-2.9zm.2 4.7c-.9 0-1.7-.6-1.7-1.5s.6-1.7 1.5-1.7 1.6.6 1.7 1.5c.1.8-.6 1.6-1.5 1.7z"/><path d="m83.9 75.5h-12.7c.1-.4.2-.9.2-1.3 0-3.6-3.3-6.8-8.7-8.5-1.3-3.5-4.6-5.9-8.4-5.9s-7.1 2.4-8.4 5.9c-5.4 1.7-8.7 5-8.7 8.5 0 .5.1.9.2 1.3h-12.6c-5.3-5.2-8.5-12.2-8.5-18.9 0-11.7 10-23.1 23.4-26.6.8.5 1.7.8 2.7.8h24c2.2 0 4.1-1.4 4.8-3.5l2.6-8.4h3.8c.6 0 1-.4 1-1s-.4-1-1-1h-4.6-37.3-4.5c-.6 0-1 .4-1 1s.4 1 1 1h3.8l1.3 4.4c-16.7 4.3-28.2 18.1-28.2 34 0 9.1 3.7 17.6 10.6 24.2v.3c0 3.4 2.8 6.2 6.1 6.2h2.9c.4.2.9.4 1.3.6l3.2 5.8c.8 1.7 2.5 2.8 4.4 2.8h35.4c1.9 0 3.6-1.1 4.4-2.7l3.6-6.5h3.8c3.5 0 6.2-2.9 6.2-6.2.1-3.6-2.7-6.3-6.1-6.3zm-20.7-7.6c3.8 1.5 6.2 3.8 6.2 6.2 0 .5-.1.9-.2 1.3h-9.2c2.4-2.1 3.4-4.8 3.2-7.5zm-15.5-1.2c.8-2.9 3.6-5 6.6-5 3.1 0 5.8 2.1 6.6 5 1.3 4.2-1.9 8.7-6.5 8.8h-.2c-3.8 0-6.8-3.1-6.8-6.9 0-.7.1-1.3.3-1.9zm-2.2 1.2v.7c0 2.7 1.3 5.2 3.3 6.9h-9.2c-.2-.4-.2-.9-.2-1.3-.1-2.5 2.2-4.9 6.1-6.3zm26.1-49.2-2.4 7.9c-.4 1.3-1.5 2.1-2.9 2.1h-24c-.7 0-1.3-.2-1.9-.7-.5-.3-.8-.9-1-1.4l-2.4-7.8h34.6zm-52.4 60.2c0 .1 0 .1 0 0-5.9-6-9.1-13.7-9.1-21.8 0-15 11-28.1 26.8-32.1l.7 2.1c.1.2.1.4.3.6 0 .1.1.1.1.2s.1.2.1.3c-13.7 4.1-23.8 16-23.8 28.3 0 6.8 3 13.9 8.2 19.4 0 0-.1 0-.1.1-1.5.6-2.6 1.7-3.2 2.9zm55.5 14.4c-.5 1-1.5 1.7-2.6 1.7h-35.5c-1.1 0-2.1-.7-2.6-1.7l-3.1-5.5h46.9zm9.2-7.5h-54.9s-.6 0-4.2 0c-2.3 0-4.1-1.9-4.1-4.2 0-2.1 1.5-4 3.9-4.2h45.3 14.1c2.3 0 4.2 1.9 4.2 4.2-.1 2.2-1.9 4.2-4.3 4.2z"/><path d="m53.3 42.4v7.5c0 .6.4 1 1 1s1-.4 1-1v-7.5c0-.6-.4-1-1-1s-1 .4-1 1z"/><path d="m45.4 44.9v7.5c0 .6.4 1 1 1s1-.4 1-1v-7.5c0-.6-.4-1-1-1s-1 .4-1 1z"/><path d="m61.2 44.9v7.5c0 .6.4 1 1 1s1-.4 1-1v-7.5c0-.6-.4-1-1-1s-1 .4-1 1z"/></g></g></g></g></g></svg>